<svg xmlns="http://www.w3.org/2000/svg" width="280" height="76" viewBox="0 0 280 76" role="img" aria-label="LinkedIn: Webs Creative">
  <defs>
    <linearGradient id="b" x1="0" y1="0" x2="1" y2="1">
      <stop offset="0" stop-color="#E5762F"/><stop offset=".55" stop-color="#232127"/><stop offset="1" stop-color="#232127"/>
    </linearGradient>
    <radialGradient id="ig" cx="30%" cy="107%" r="150%">
      <stop offset="0" stop-color="#FDF497"/><stop offset=".05" stop-color="#FDF497"/><stop offset=".45" stop-color="#FD5949"/><stop offset=".6" stop-color="#D6249F"/><stop offset=".9" stop-color="#285AEB"/>
    </radialGradient>
    <linearGradient id="sh" x1="0" x2="1">
      <stop offset="0" stop-color="#FFFFFF" stop-opacity="0"/><stop offset=".5" stop-color="#FFFFFF" stop-opacity=".07"/><stop offset="1" stop-color="#FFFFFF" stop-opacity="0"/>
    </linearGradient>
    <clipPath id="c"><rect width="280" height="76" rx="18"/></clipPath>
  </defs>
  <style>
    .l{font:700 18px 'Segoe UI', 'Inter', -apple-system, BlinkMacSystemFont, 'Helvetica Neue', Arial, sans-serif;fill:#FFFFFF}
    .h{font:500 14px 'Segoe UI', 'Inter', -apple-system, BlinkMacSystemFont, 'Helvetica Neue', Arial, sans-serif;fill:#71717C}
    .a{font:600 20px 'Segoe UI', 'Inter', -apple-system, BlinkMacSystemFont, 'Helvetica Neue', Arial, sans-serif;fill:#E5762F}
    .shine{animation:shine 5s ease-in-out infinite;animation-delay:2.10s}
    @keyframes shine{0%{transform:translateX(-160px)}35%,100%{transform:translateX(340px)}}
    @media (prefers-reduced-motion: reduce){*{animation:none!important}}
  </style>
  <g clip-path="url(#c)">
    <rect width="280" height="76" fill="#121216"/>
    <rect class="shine" x="0" y="-20" width="90" height="116" fill="url(#sh)" transform="skewX(-20)"/>
  </g>
  <rect x=".75" y=".75" width="278.5" height="74.5" rx="17.5" fill="none" stroke="url(#b)" stroke-width="1.5"/>
  <rect x="14" y="14" width="48" height="48" rx="14" fill="#0A66C2"/>
  <g transform="translate(26 26)"><path fill="#FFFFFF" d="M20.447 20.452h-3.554v-5.569c0-1.328-.027-3.037-1.852-3.037-1.853 0-2.136 1.445-2.136 2.939v5.667H9.351V9h3.414v1.561h.046c.477-.9 1.637-1.85 3.37-1.85 3.601 0 4.267 2.37 4.267 5.455v6.286zM5.337 7.433c-1.144 0-2.063-.926-2.063-2.065 0-1.138.92-2.063 2.063-2.063 1.14 0 2.064.925 2.064 2.063 0 1.139-.925 2.065-2.064 2.065zm1.782 13.019H3.555V9h3.564v11.452zM22.225 0H1.771C.792 0 0 .774 0 1.729v20.542C0 23.227.792 24 1.771 24h20.451C23.2 24 24 23.227 24 22.271V1.729C24 .774 23.2 0 22.222 0h.003z"/></g>
  <text x="76" y="34" class="l">LinkedIn</text>
  <text x="76" y="55" class="h">Webs Creative</text>
  <text x="258" y="45" text-anchor="end" class="a">↗</text>
</svg>
